<?xml version="1.0" encoding="UTF-8" standalone="no"?>
<svg
   xmlns:dc="http://purl.org/dc/elements/1.1/"
   xmlns:cc="http://creativecommons.org/ns#"
   xmlns:rdf="http://www.w3.org/1999/02/22-rdf-syntax-ns#"
   xmlns:svg="http://www.w3.org/2000/svg"
   xmlns="http://www.w3.org/2000/svg"
   xmlns:sodipodi="http://sodipodi.sourceforge.net/DTD/sodipodi-0.dtd"
   xmlns:inkscape="http://www.inkscape.org/namespaces/inkscape"
   height="149.83292pt"
   viewBox="0 0 150 149.83292"
   width="150pt"
   version="1.1"
   id="svg106"
   sodipodi:docname="crackoffice.svg"
   inkscape:version="0.92.3 (2405546, 2018-03-11)">
  <metadata
     id="metadata112">
    <rdf:RDF>
      <cc:Work
         rdf:about="">
        <dc:format>image/svg+xml</dc:format>
        <dc:type
           rdf:resource="http://purl.org/dc/dcmitype/StillImage" />
        <dc:title></dc:title>
      </cc:Work>
    </rdf:RDF>
  </metadata>
  <defs
     id="defs110" />
  <sodipodi:namedview
     pagecolor="#ffffff"
     bordercolor="#666666"
     borderopacity="1"
     objecttolerance="10"
     gridtolerance="10"
     guidetolerance="10"
     inkscape:pageopacity="0"
     inkscape:pageshadow="2"
     inkscape:window-width="816"
     inkscape:window-height="480"
     id="namedview108"
     showgrid="false"
     fit-margin-top="0"
     fit-margin-left="0"
     fit-margin-right="0"
     fit-margin-bottom="0"
     inkscape:zoom="0.34570313"
     inkscape:cx="99.999993"
     inkscape:cy="99.508413"
     inkscape:window-x="0"
     inkscape:window-y="31"
     inkscape:window-maximized="0"
     inkscape:current-layer="svg106" />
  <path
     d="m 53.95775,122.37625 h 41.9117 v 17.34695 h -41.9117 z m 0,0"
     id="path2"
     inkscape:connector-curvature="0"
     style="fill:#5a5a5a;stroke-width:0.29296875" />
  <path
     d="M 142.13562,124.80583 H 7.69158 C 3.44353,124.80583 0,121.3623 0,117.11425 V 7.69157 C 0,3.44353 3.44353,0 7.69158,0 h 134.44404 c 4.24804,0 7.69157,3.44353 7.69157,7.69157 v 109.42268 c 0,4.24805 -3.44353,7.69158 -7.69157,7.69158 z m 0,0"
     id="path4"
     inkscape:connector-curvature="0"
     style="fill:#ffd86e;stroke-width:0.29296875" />
  <path
     d="m 149.82834,7.69272 v 109.42153 c 0,4.24805 -3.44353,7.69158 -7.69158,7.69158 h -9.3956 c 4.24805,0 7.69158,-3.44353 7.69158,-7.69158 V 7.69272 c 0,-4.24805 -3.44353,-7.69158 -7.69158,-7.69158 h 9.3956 c 4.24805,0 7.69158,3.44353 7.69158,7.69158 z m 0,0"
     id="path6"
     inkscape:connector-curvature="0"
     style="fill:#ffb509;stroke-width:0.29296875" />
  <path
     d="M 149.82719,106.27555 H 0 v 10.8387 c 0,4.24805 3.44353,7.69158 7.69158,7.69158 h 134.44404 c 4.24804,0 7.69157,-3.44353 7.69157,-7.69158 z m 0,0"
     id="path8"
     inkscape:connector-curvature="0"
     style="fill:#838383;stroke-width:0.29296875" />
  <path
     d="m 149.82834,106.27441 v 10.83984 c 0,4.24805 -3.44353,7.69158 -7.69158,7.69158 h -9.3956 c 4.24805,0 7.69158,-3.44353 7.69158,-7.69158 v -10.83984 z m 0,0"
     id="path10"
     inkscape:connector-curvature="0"
     style="fill:#5a5a5a;stroke-width:0.29296875" />
  <path
     d="M 149.99885,26.23901 H 0.16709 V 7.69157 C 0.16709,3.44353 3.61061,0 7.85752,0 h 134.44976 c 4.24805,0 7.69157,3.44353 7.69157,7.69157 z m 0,0"
     id="path12"
     inkscape:connector-curvature="0"
     style="fill:#acacac;stroke-width:0.29296875" />
  <path
     d="m 150,7.69043 v 18.54973 h -9.56726 V 7.69043 c 0,-4.24576 -3.44353,-7.68929 -7.69272,-7.68929 h 9.5684 c 4.24805,0 7.69158,3.44353 7.69158,7.68929 z m 0,0"
     id="path14"
     inkscape:connector-curvature="0"
     style="fill:#9c9c9c;stroke-width:0.29296875" />
  <path
     d="M 109.45129,149.83177 H 40.3759 c -0.83198,0 -1.50719,-0.67521 -1.50719,-1.50719 v -4.88548 c 0,-3.31307 2.68593,-5.999 5.999,-5.999 h 60.09178 c 3.31306,0 5.99899,2.68593 5.99899,5.999 v 4.88548 c 0,0.83198 -0.6752,1.50719 -1.50719,1.50719 z m 0,0"
     id="path16"
     inkscape:connector-curvature="0"
     style="fill:#838383;stroke-width:0.29296875" />
  <path
     d="m 110.95848,143.43795 v 4.88777 c 0,0.83199 -0.6752,1.50719 -1.50833,1.50719 h -5.3215 v -6.39496 c 0,-3.31077 -2.68593,-5.99785 -5.99671,-5.99785 h 6.82984 c 3.31192,0 5.9967,2.68593 5.9967,5.99785 z m 0,0"
     id="path18"
     inkscape:connector-curvature="0"
     style="fill:#5a5a5a;stroke-width:0.29296875" />
  <g
     id="g54"
     transform="scale(0.29296874)"
     style="fill:#838383">
    <path
       d="m 58.476562,186.49219 c -1.917968,0 -3.839843,-0.73047 -5.304687,-2.19532 L 28.972656,160.09375 c -2.929687,-2.92578 -2.929687,-7.67578 0,-10.60547 l 24.199219,-24.19922 c 2.929687,-2.92968 7.679687,-2.92968 10.609375,0 2.929688,2.92969 2.929688,7.67578 0,10.60547 l -18.898438,18.89844 18.898438,18.89844 c 2.929688,2.92968 2.929688,7.67578 0,10.60546 -1.464844,1.46485 -3.386719,2.19532 -5.304688,2.19532 z m 0,0"
       id="path20"
       inkscape:connector-curvature="0" />
    <path
       d="m 116.33594,186.49219 c -1.91797,0 -3.83985,-0.73047 -5.30469,-2.19532 -2.92969,-2.92968 -2.92969,-7.67968 0,-10.60546 l 18.89844,-18.89844 -18.89844,-18.89844 c -2.92969,-2.92969 -2.92969,-7.67969 0,-10.60547 2.92969,-2.92968 7.67969,-2.92968 10.60938,0 l 24.19921,24.19922 c 2.92969,2.92969 2.92969,7.67969 0,10.60547 l -24.19921,24.20312 c -1.46485,1.46485 -3.38672,2.19532 -5.30469,2.19532 z m 0,0"
       id="path22"
       inkscape:connector-curvature="0" />
    <path
       d="m 78.722656,186.49609 c -0.914062,0 -1.839844,-0.16797 -2.742187,-0.52343 C 72.125,184.46094 70.226562,180.10547 71.742188,176.25 l 19.015624,-48.40234 c 1.515626,-3.85157 5.871094,-5.75391 9.722658,-4.23828 3.85547,1.51562 5.75391,5.87109 4.23828,9.72656 l -19.015625,48.39843 c -1.160156,2.95704 -3.988281,4.76172 -6.980469,4.76172 z m 0,0"
       id="path24"
       inkscape:connector-curvature="0" />
    <path
       d="m 90.644531,231.78125 h -52 c -4.140625,0 -7.5,-3.35938 -7.5,-7.5 0,-4.14453 3.359375,-7.5 7.5,-7.5 h 52 c 4.144531,0 7.5,3.35547 7.5,7.5 0,4.14062 -3.355469,7.5 -7.5,7.5 z m 0,0"
       id="path26"
       inkscape:connector-curvature="0" />
    <path
       d="m 210.41797,231.78125 h -91.42578 c -4.14063,0 -7.5,-3.35938 -7.5,-7.5 0,-4.14453 3.35937,-7.5 7.5,-7.5 h 91.42578 c 4.14453,0 7.5,3.35547 7.5,7.5 0,4.14062 -3.35547,7.5 -7.5,7.5 z m 0,0"
       id="path28"
       inkscape:connector-curvature="0" />
    <path
       d="M 60.796875,264.33594 H 38.644531 c -4.140625,0 -7.5,-3.35547 -7.5,-7.5 0,-4.14063 3.359375,-7.5 7.5,-7.5 h 22.152344 c 4.144531,0 7.5,3.35937 7.5,7.5 0,4.14453 -3.359375,7.5 -7.5,7.5 z m 0,0"
       id="path30"
       inkscape:connector-curvature="0" />
    <path
       d="m 195.66797,264.33594 h -13.49219 c -4.14062,0 -7.5,-3.35547 -7.5,-7.5 0,-4.14063 3.35938,-7.5 7.5,-7.5 h 13.49219 c 4.14062,0 7.5,3.35937 7.5,7.5 0,4.14453 -3.35938,7.5 -7.5,7.5 z m 0,0"
       id="path32"
       inkscape:connector-curvature="0" />
    <path
       d="M 154.14062,264.33594 H 87.882812 c -4.144531,0 -7.5,-3.35547 -7.5,-7.5 0,-4.14063 3.355469,-7.5 7.5,-7.5 h 66.257808 c 4.14454,0 7.5,3.35937 7.5,7.5 0,4.14453 -3.35937,7.5 -7.5,7.5 z m 0,0"
       id="path34"
       inkscape:connector-curvature="0" />
    <path
       d="m 245.41406,264.33594 h -25.26953 c -4.14062,0 -7.5,-3.35547 -7.5,-7.5 0,-4.14063 3.35938,-7.5 7.5,-7.5 h 25.26953 c 4.14063,0 7.5,3.35937 7.5,7.5 0,4.14453 -3.35937,7.5 -7.5,7.5 z m 0,0"
       id="path36"
       inkscape:connector-curvature="0" />
    <path
       d="m 197.03906,160.76172 h -26.65234 c -4.14453,0 -7.5,-3.35547 -7.5,-7.5 0,-4.14063 3.35547,-7.5 7.5,-7.5 h 26.65234 c 4.14453,0 7.5,3.35937 7.5,7.5 0,4.14453 -3.35547,7.5 -7.5,7.5 z m 0,0"
       id="path38"
       inkscape:connector-curvature="0" />
    <path
       d="M 389.50391,160.76172 H 226.88672 c -4.14063,0 -7.5,-3.35547 -7.5,-7.5 0,-4.14063 3.35937,-7.5 7.5,-7.5 h 162.61719 c 4.14062,0 7.5,3.35937 7.5,7.5 0,4.14453 -3.35938,7.5 -7.5,7.5 z m 0,0"
       id="path40"
       inkscape:connector-curvature="0" />
    <path
       d="m 364.80078,194.72656 h -65.86719 c -4.14453,0 -7.5,-3.35547 -7.5,-7.5 0,-4.14062 3.35547,-7.5 7.5,-7.5 h 65.86719 c 4.14453,0 7.5,3.35938 7.5,7.5 0,4.14453 -3.35547,7.5 -7.5,7.5 z m 0,0"
       id="path42"
       inkscape:connector-curvature="0" />
    <path
       d="m 274.23047,194.72656 h -22.64453 c -4.14063,0 -7.5,-3.35547 -7.5,-7.5 0,-4.14062 3.35937,-7.5 7.5,-7.5 h 22.64453 c 4.14453,0 7.5,3.35938 7.5,7.5 0,4.14453 -3.35547,7.5 -7.5,7.5 z m 0,0"
       id="path44"
       inkscape:connector-curvature="0" />
    <path
       d="m 225.85937,194.72656 h -55.47656 c -4.14062,0 -7.5,-3.35547 -7.5,-7.5 0,-4.14062 3.35938,-7.5 7.5,-7.5 h 55.47656 c 4.14063,0 7.5,3.35938 7.5,7.5 0,4.14453 -3.35937,7.5 -7.5,7.5 z m 0,0"
       id="path46"
       inkscape:connector-curvature="0" />
    <path
       d="m 154.23828,296.62109 h -52 c -4.14453,0 -7.499999,-3.35937 -7.499999,-7.5 0,-4.14453 3.355469,-7.5 7.499999,-7.5 h 52 c 4.14453,0 7.5,3.35547 7.5,7.5 0,4.14063 -3.35547,7.5 -7.5,7.5 z m 0,0"
       id="path48"
       inkscape:connector-curvature="0" />
    <path
       d="M 78.597656,296.62109 H 38.644531 c -4.140625,0 -7.5,-3.35937 -7.5,-7.5 0,-4.14453 3.359375,-7.5 7.5,-7.5 h 39.953125 c 4.140625,0 7.5,3.35547 7.5,7.5 0,4.14063 -3.359375,7.5 -7.5,7.5 z m 0,0"
       id="path50"
       inkscape:connector-curvature="0" />
    <path
       d="m 248.5,296.62109 h -67.92578 c -4.14453,0 -7.5,-3.35937 -7.5,-7.5 0,-4.14453 3.35547,-7.5 7.5,-7.5 H 248.5 c 4.14453,0 7.5,3.35547 7.5,7.5 0,4.14063 -3.35547,7.5 -7.5,7.5 z m 0,0"
       id="path52"
       inkscape:connector-curvature="0" />
  </g>
  <path
     d="m 86.9133,77.16522 h 48.97041 V 93.74885 H 86.9133 Z m 0,0"
     id="path56"
     inkscape:connector-curvature="0"
     style="fill:#64dcfc;stroke-width:0.29296875" />
  <path
     d="m 86.9133,102.79426 h 48.97041 v 15.37857 H 86.9133 Z m 0,0"
     id="path58"
     inkscape:connector-curvature="0"
     style="fill:#64dcfc;stroke-width:0.29296875" />
  <path
     d="m 130.093,77.16522 h 5.79071 V 93.74885 H 130.093 Z m 0,0"
     id="path60"
     inkscape:connector-curvature="0"
     style="fill:#00d1fc;stroke-width:0.29296875" />
  <path
     d="m 130.093,102.79426 h 5.79071 v 15.37857 H 130.093 Z m 0,0"
     id="path62"
     inkscape:connector-curvature="0"
     style="fill:#00d1fc;stroke-width:0.29296875" />
  <path
     d="M 139.93835,80.76782 H 82.85866 c -1.20735,0 -2.18582,-0.97847 -2.18582,-2.18582 V 67.59109 c 0,-1.20735 0.97847,-2.18582 2.18582,-2.18582 h 57.07969 c 1.20735,0 2.18582,0.97847 2.18582,2.18582 V 78.582 c 0,1.20735 -0.97847,2.18582 -2.18582,2.18582 z m 0,0"
     id="path64"
     inkscape:connector-curvature="0"
     style="fill:#0396fd;stroke-width:0.29296875" />
  <path
     d="M 139.93835,105.41267 H 82.85866 c -1.20735,0 -2.18582,-0.97847 -2.18582,-2.18582 V 92.23594 c 0,-1.20735 0.97847,-2.18582 2.18582,-2.18582 h 57.07969 c 1.20735,0 2.18582,0.97847 2.18582,2.18582 v 10.99091 c 0,1.20735 -0.97847,2.18582 -2.18582,2.18582 z m 0,0"
     id="path66"
     inkscape:connector-curvature="0"
     style="fill:#0396fd;stroke-width:0.29296875" />
  <path
     d="M 139.93835,130.05752 H 82.85866 c -1.20735,0 -2.18582,-0.97847 -2.18582,-2.18582 v -10.99091 c 0,-1.20735 0.97847,-2.18582 2.18582,-2.18582 h 57.07969 c 1.20735,0 2.18582,0.97847 2.18582,2.18582 v 10.99091 c 0,1.20735 -0.97847,2.18582 -2.18582,2.18582 z m 0,0"
     id="path68"
     inkscape:connector-curvature="0"
     style="fill:#0396fd;stroke-width:0.29296875" />
  <path
     d="M 142.12417,67.59109 V 78.582 c 0,1.2062 -0.97732,2.18582 -2.18582,2.18582 h -5.07202 c 1.20964,0 2.18582,-0.97962 2.18582,-2.18582 V 67.59109 c 0,-1.20621 -0.97618,-2.18582 -2.18582,-2.18582 h 5.07202 c 1.2085,0 2.18582,0.97961 2.18582,2.18582 z m 0,0"
     id="path70"
     inkscape:connector-curvature="0"
     style="fill:#0077f0;stroke-width:0.29296875" />
  <path
     d="m 142.12417,92.2348 v 10.9909 c 0,1.20964 -0.97732,2.18697 -2.18582,2.18697 h -5.07202 c 1.20964,0 2.18582,-0.97733 2.18582,-2.18697 V 92.2348 c 0,-1.20621 -0.97618,-2.18582 -2.18582,-2.18582 h 5.07202 c 1.2085,0 2.18582,0.97961 2.18582,2.18582 z m 0,0"
     id="path72"
     inkscape:connector-curvature="0"
     style="fill:#0077f0;stroke-width:0.29296875" />
  <path
     d="m 142.12417,116.88194 v 10.9909 c 0,1.20621 -0.97732,2.18582 -2.18582,2.18582 h -5.07202 c 1.20964,0 2.18582,-0.97961 2.18582,-2.18582 v -10.9909 c 0,-1.2085 -0.97618,-2.18582 -2.18582,-2.18582 h 5.07202 c 1.2085,0 2.18582,0.97732 2.18582,2.18582 z m 0,0"
     id="path74"
     inkscape:connector-curvature="0"
     style="fill:#0077f0;stroke-width:0.29296875" />
  <path
     d="M 99.7158,75.28381 H 88.83362 c -1.21308,0 -2.19727,-0.98305 -2.19727,-2.19727 0,-1.21307 0.98419,-2.19726 2.19727,-2.19726 h 10.88333 c 1.21307,0 2.19726,0.98419 2.19726,2.19726 0,1.21422 -0.98419,2.19727 -2.19841,2.19727 z m 0,0"
     id="path76"
     inkscape:connector-curvature="0"
     style="fill:#e7e7e7;stroke-width:0.29296875" />
  <path
     d="M 133.96339,75.28381 H 118.5997 c -1.21307,0 -2.19727,-0.98305 -2.19727,-2.19727 0,-1.21307 0.9842,-2.19726 2.19727,-2.19726 h 15.36255 c 1.21422,0 2.19726,0.98419 2.19726,2.19726 0,1.21422 -0.98304,2.19727 -2.19612,2.19727 z m 0,0"
     id="path78"
     inkscape:connector-curvature="0"
     style="fill:#e7e7e7;stroke-width:0.29296875" />
  <path
     d="m 110.91843,75.28381 h -3.52135 c -1.21308,0 -2.19727,-0.98305 -2.19727,-2.19727 0,-1.21307 0.98419,-2.19726 2.19727,-2.19726 h 3.52135 c 1.21421,0 2.19726,0.98419 2.19726,2.19726 0,1.21422 -0.98419,2.19727 -2.19726,2.19727 z m 0,0"
     id="path80"
     inkscape:connector-curvature="0"
     style="fill:#e7e7e7;stroke-width:0.29296875" />
  <path
     d="M 99.7158,99.92866 H 88.83362 c -1.21308,0 -2.19727,-0.98305 -2.19727,-2.19727 0,-1.21307 0.98419,-2.19726 2.19727,-2.19726 h 10.88333 c 1.21307,0 2.19726,0.98419 2.19726,2.19726 0,1.21422 -0.98419,2.19727 -2.19841,2.19727 z m 0,0"
     id="path82"
     inkscape:connector-curvature="0"
     style="fill:#e7e7e7;stroke-width:0.29296875" />
  <path
     d="M 133.96339,99.92866 H 118.5997 c -1.21307,0 -2.19727,-0.98305 -2.19727,-2.19727 0,-1.21307 0.9842,-2.19726 2.19727,-2.19726 h 15.36255 c 1.21422,0 2.19726,0.98419 2.19726,2.19726 0,1.21422 -0.98304,2.19727 -2.19612,2.19727 z m 0,0"
     id="path84"
     inkscape:connector-curvature="0"
     style="fill:#e7e7e7;stroke-width:0.29296875" />
  <path
     d="m 110.91843,99.92866 h -3.52135 c -1.21308,0 -2.19727,-0.98305 -2.19727,-2.19727 0,-1.21307 0.98419,-2.19726 2.19727,-2.19726 h 3.52135 c 1.21421,0 2.19726,0.98419 2.19726,2.19726 0,1.21422 -0.98419,2.19727 -2.19726,2.19727 z m 0,0"
     id="path86"
     inkscape:connector-curvature="0"
     style="fill:#e7e7e7;stroke-width:0.29296875" />
  <path
     d="M 99.7158,124.57351 H 88.83362 c -1.21308,0 -2.19727,-0.98419 -2.19727,-2.19726 0,-1.21308 0.98419,-2.19727 2.19727,-2.19727 h 10.88333 c 1.21307,0 2.19726,0.98419 2.19726,2.19727 0,1.21307 -0.98419,2.19726 -2.19841,2.19726 z m 0,0"
     id="path88"
     inkscape:connector-curvature="0"
     style="fill:#e7e7e7;stroke-width:0.29296875" />
  <path
     d="M 133.96339,124.57351 H 118.5997 c -1.21307,0 -2.19727,-0.98419 -2.19727,-2.19726 0,-1.21308 0.9842,-2.19727 2.19727,-2.19727 h 15.36255 c 1.21422,0 2.19726,0.98419 2.19726,2.19727 0,1.21307 -0.98304,2.19726 -2.19612,2.19726 z m 0,0"
     id="path90"
     inkscape:connector-curvature="0"
     style="fill:#e7e7e7;stroke-width:0.29296875" />
  <path
     d="m 110.91843,124.57351 h -3.52135 c -1.21308,0 -2.19727,-0.98419 -2.19727,-2.19726 0,-1.21308 0.98419,-2.19727 2.19727,-2.19727 h 3.52135 c 1.21421,0 2.19726,0.98419 2.19726,2.19727 0,1.21307 -0.98419,2.19726 -2.19726,2.19726 z m 0,0"
     id="path92"
     inkscape:connector-curvature="0"
     style="fill:#e7e7e7;stroke-width:0.29296875" />
  <path
     d="m 18.79234,13.05542 c 0,2.41699 -1.95922,4.37507 -4.37507,4.37507 -2.41699,0 -4.37622,-1.95808 -4.37622,-4.37507 0,-2.41585 1.95923,-4.37508 4.37622,-4.37508 2.41585,0 4.37507,1.95923 4.37507,4.37508 z m 0,0"
     id="path94"
     inkscape:connector-curvature="0"
     style="fill:#ff5770;stroke-width:0.29296875" />
  <path
     d="m 35.6884,13.05542 c 0,2.41699 -1.95808,4.37507 -4.37507,4.37507 -2.41585,0 -4.37508,-1.95808 -4.37508,-4.37507 0,-2.41585 1.95923,-4.37508 4.37508,-4.37508 2.41699,0 4.37507,1.95923 4.37507,4.37508 z m 0,0"
     id="path96"
     inkscape:connector-curvature="0"
     style="fill:#ffd86e;stroke-width:0.29296875" />
  <path
     d="m 52.5856,13.05542 c 0,2.41699 -1.95923,4.37507 -4.37507,4.37507 -2.417,0 -4.37508,-1.95808 -4.37508,-4.37507 0,-2.41585 1.95808,-4.37508 4.37508,-4.37508 2.41584,0 4.37507,1.95923 4.37507,4.37508 z m 0,0"
     id="path98"
     inkscape:connector-curvature="0"
     style="fill:#80e0dc;stroke-width:0.29296875" />
  <path
     d="m 18.79006,13.05656 c 0,2.41585 -1.95694,4.37279 -4.37165,4.37279 -1.17073,0 -2.23503,-0.45891 -3.01895,-1.20964 2.36664,-0.0515 4.27323,-1.9867 4.27323,-4.36936 0,-1.2474 -0.52186,-2.37007 -1.35727,-3.16543 0.0332,-0.003 0.0698,-0.003 0.10299,-0.003 2.41471,0 4.37165,1.95694 4.37165,4.37507 z m 0,0"
     id="path100"
     inkscape:connector-curvature="0"
     style="fill:#ff435f;stroke-width:0.29296875" />
  <path
     d="m 35.68726,13.05656 c 0,2.41585 -1.95694,4.37279 -4.37508,4.37279 -1.16959,0 -2.23045,-0.45891 -3.01781,-1.20964 2.37008,-0.0515 4.27552,-1.9867 4.27552,-4.36936 0,-1.2474 -0.52185,-2.37007 -1.35613,-3.16543 0.032,-0.003 0.0652,-0.003 0.0996,-0.003 2.41813,0 4.37393,1.95694 4.37393,4.37507 z m 0,0"
     id="path102"
     inkscape:connector-curvature="0"
     style="fill:#ffb509;stroke-width:0.29296875" />
  <path
     d="m 52.5856,13.05656 c 0,2.41585 -1.96037,4.37279 -4.37507,4.37279 -1.17073,0 -2.2316,-0.45891 -3.01896,-1.20964 2.37008,-0.0515 4.27323,-1.9867 4.27323,-4.36936 0,-1.2474 -0.52185,-2.37007 -1.35727,-3.16543 0.0332,-0.003 0.0698,-0.003 0.103,-0.003 2.4147,0 4.37507,1.95694 4.37507,4.37507 z m 0,0"
     id="path104"
     inkscape:connector-curvature="0"
     style="fill:#00a8b0;stroke-width:0.29296875" />
</svg>
